<?xml version="1.0" encoding="UTF-8"?>
<svg xmlns="http://www.w3.org/2000/svg" width="1080" height="980" viewBox="0 0 1080 980">
  <style>
    text { font-family: ui-sans-serif, system-ui, sans-serif; fill: #1f2937; }
    .heading { font-size: 19px; font-weight: 700; }
    .subtitle { font-size: 11px; fill: #4b5563; }
    .title { font-size: 12.5px; font-weight: 700; }
    .note, .axis, .legend { font-size: 9px; fill: #4b5563; }
    .rowlabel { font-size: 11px; font-weight: 700; fill: #374151; }
  </style>
  <rect width="1080" height="980" fill="#fcfcfb" />
  <text x="24" y="28" class="heading">#291 closed-loop v1 — safety and throughput tradeoffs</text>
  <text x="24" y="46" class="subtitle">Identity comes from the row labels, so every bar shares one neutral fill.</text>
  <text x="24" y="61" class="subtitle">Red carries a single meaning — the candidate ran the weekly budget to zero — and the number beside each bar repeats the value, so the flag is never colour-alone.</text>
  <g><text x="168" y="112" class="title">Hours with quota exhausted</text><text x="168" y="126" class="note">lower is better</text><rect x="168" y="138" width="0.0" height="12" rx="3" fill="#111827" /><text x="173.0" y="147" class="axis">0.0</text><text x="162" y="147" text-anchor="end" class="axis">current (120 / 1h / 1800)</text><rect x="168" y="154" width="0.0" height="12" rx="3" fill="#111827" /><text x="173.0" y="163" class="axis">0.0</text><text x="162" y="163" text-anchor="end" class="axis">Kp 80</text><rect x="168" y="170" width="0.0" height="12" rx="3" fill="#111827" /><text x="173.0" y="179" class="axis">0.0</text><text x="162" y="179" text-anchor="end" class="axis">Kp 160</text><rect x="168" y="186" width="0.0" height="12" rx="3" fill="#111827" /><text x="173.0" y="195" class="axis">0.0</text><text x="162" y="195" text-anchor="end" class="axis">Ti 2h</text><rect x="168" y="202" width="0.0" height="12" rx="3" fill="#111827" /><text x="173.0" y="211" class="axis">0.0</text><text x="162" y="211" text-anchor="end" class="axis">Ti 0.5h</text><rect x="168" y="218" width="0.0" height="12" rx="3" fill="#111827" /><text x="173.0" y="227" class="axis">0.0</text><text x="162" y="227" text-anchor="end" class="axis">Kd 900</text><rect x="168" y="234" width="0.0" height="12" rx="3" fill="#111827" /><text x="173.0" y="243" class="axis">0.0</text><text x="162" y="243" text-anchor="end" class="axis">Kd 3600</text><rect x="168" y="250" width="0.0" height="12" rx="3" fill="#111827" /><text x="173.0" y="259" class="axis">0.0</text><text x="162" y="259" text-anchor="end" class="axis">Ti 2h + Kd 3600</text></g>
  <g><text x="456" y="112" class="title">External runs completed</text><text x="456" y="126" class="note">higher is better</text><rect x="456" y="138" width="170.0" height="12" rx="3" fill="#111827" /><text x="631.0" y="147" class="axis">1379</text><rect x="456" y="154" width="170.0" height="12" rx="3" fill="#111827" /><text x="631.0" y="163" class="axis">1379</text><rect x="456" y="170" width="170.0" height="12" rx="3" fill="#111827" /><text x="631.0" y="179" class="axis">1379</text><rect x="456" y="186" width="170.0" height="12" rx="3" fill="#111827" /><text x="631.0" y="195" class="axis">1379</text><rect x="456" y="202" width="170.0" height="12" rx="3" fill="#111827" /><text x="631.0" y="211" class="axis">1379</text><rect x="456" y="218" width="170.0" height="12" rx="3" fill="#111827" /><text x="631.0" y="227" class="axis">1379</text><rect x="456" y="234" width="170.0" height="12" rx="3" fill="#111827" /><text x="631.0" y="243" class="axis">1379</text><rect x="456" y="250" width="170.0" height="12" rx="3" fill="#111827" /><text x="631.0" y="259" class="axis">1379</text></g>
  <g><text x="744" y="112" class="title">External wait, p95 (hours)</text><text x="744" y="126" class="note">lower is better</text><rect x="744" y="138" width="0.0" height="12" rx="3" fill="#111827" /><text x="749.0" y="147" class="axis">0.0</text><rect x="744" y="154" width="0.0" height="12" rx="3" fill="#111827" /><text x="749.0" y="163" class="axis">0.0</text><rect x="744" y="170" width="0.0" height="12" rx="3" fill="#111827" /><text x="749.0" y="179" class="axis">0.0</text><rect x="744" y="186" width="0.0" height="12" rx="3" fill="#111827" /><text x="749.0" y="195" class="axis">0.0</text><rect x="744" y="202" width="0.0" height="12" rx="3" fill="#111827" /><text x="749.0" y="211" class="axis">0.0</text><rect x="744" y="218" width="0.0" height="12" rx="3" fill="#111827" /><text x="749.0" y="227" class="axis">0.0</text><rect x="744" y="234" width="0.0" height="12" rx="3" fill="#111827" /><text x="749.0" y="243" class="axis">0.0</text><rect x="744" y="250" width="0.0" height="12" rx="3" fill="#111827" /><text x="749.0" y="259" class="axis">0.0</text></g>
  <text x="24" y="90" class="rowlabel">Nominal week (85% of budget)</text>
  <g><text x="168" y="324" class="title">Hours with quota exhausted</text><text x="168" y="338" class="note">lower is better</text><rect x="168" y="350" width="0.0" height="12" rx="3" fill="#111827" /><text x="173.0" y="359" class="axis">0.0</text><text x="162" y="359" text-anchor="end" class="axis">current (120 / 1h / 1800)</text><rect x="168" y="366" width="170.0" height="12" rx="3" fill="#d03b3b" /><text x="343.0" y="375" class="axis">0.6</text><text x="162" y="375" text-anchor="end" class="axis">Kp 80</text><rect x="168" y="382" width="0.0" height="12" rx="3" fill="#111827" /><text x="173.0" y="391" class="axis">0.0</text><text x="162" y="391" text-anchor="end" class="axis">Kp 160</text><rect x="168" y="398" width="0.0" height="12" rx="3" fill="#111827" /><text x="173.0" y="407" class="axis">0.0</text><text x="162" y="407" text-anchor="end" class="axis">Ti 2h</text><rect x="168" y="414" width="0.0" height="12" rx="3" fill="#111827" /><text x="173.0" y="423" class="axis">0.0</text><text x="162" y="423" text-anchor="end" class="axis">Ti 0.5h</text><rect x="168" y="430" width="0.0" height="12" rx="3" fill="#111827" /><text x="173.0" y="439" class="axis">0.0</text><text x="162" y="439" text-anchor="end" class="axis">Kd 900</text><rect x="168" y="446" width="0.0" height="12" rx="3" fill="#111827" /><text x="173.0" y="455" class="axis">0.0</text><text x="162" y="455" text-anchor="end" class="axis">Kd 3600</text><rect x="168" y="462" width="0.0" height="12" rx="3" fill="#111827" /><text x="173.0" y="471" class="axis">0.0</text><text x="162" y="471" text-anchor="end" class="axis">Ti 2h + Kd 3600</text></g>
  <g><text x="456" y="324" class="title">External runs completed</text><text x="456" y="338" class="note">higher is better</text><rect x="456" y="350" width="166.2" height="12" rx="3" fill="#111827" /><text x="627.2" y="359" class="axis">1088</text><rect x="456" y="366" width="168.5" height="12" rx="3" fill="#111827" /><text x="629.5" y="375" class="axis">1103</text><rect x="456" y="382" width="165.3" height="12" rx="3" fill="#111827" /><text x="626.3" y="391" class="axis">1082</text><rect x="456" y="398" width="170.0" height="12" rx="3" fill="#111827" /><text x="631.0" y="407" class="axis">1113</text><rect x="456" y="414" width="163.4" height="12" rx="3" fill="#111827" /><text x="624.4" y="423" class="axis">1070</text><rect x="456" y="430" width="166.2" height="12" rx="3" fill="#111827" /><text x="627.2" y="439" class="axis">1088</text><rect x="456" y="446" width="166.0" height="12" rx="3" fill="#111827" /><text x="627.0" y="455" class="axis">1087</text><rect x="456" y="462" width="170.0" height="12" rx="3" fill="#111827" /><text x="631.0" y="471" class="axis">1113</text></g>
  <g><text x="744" y="324" class="title">External wait, p95 (hours)</text><text x="744" y="338" class="note">lower is better</text><rect x="744" y="350" width="168.4" height="12" rx="3" fill="#111827" /><text x="917.4" y="359" class="axis">129</text><rect x="744" y="366" width="167.0" height="12" rx="3" fill="#111827" /><text x="916.0" y="375" class="axis">127</text><rect x="744" y="382" width="169.8" height="12" rx="3" fill="#111827" /><text x="918.8" y="391" class="axis">130</text><rect x="744" y="398" width="168.5" height="12" rx="3" fill="#111827" /><text x="917.5" y="407" class="axis">129</text><rect x="744" y="414" width="170.0" height="12" rx="3" fill="#111827" /><text x="919.0" y="423" class="axis">130</text><rect x="744" y="430" width="168.2" height="12" rx="3" fill="#111827" /><text x="917.2" y="439" class="axis">128</text><rect x="744" y="446" width="168.2" height="12" rx="3" fill="#111827" /><text x="917.2" y="455" class="axis">128</text><rect x="744" y="462" width="168.5" height="12" rx="3" fill="#111827" /><text x="917.5" y="471" class="axis">129</text></g>
  <text x="24" y="302" class="rowlabel">Sustained overload (250% of budget)</text>
  <g><text x="168" y="536" class="title">Hours with quota exhausted</text><text x="168" y="550" class="note">lower is better</text><rect x="168" y="562" width="0.0" height="12" rx="3" fill="#111827" /><text x="173.0" y="571" class="axis">0.0</text><text x="162" y="571" text-anchor="end" class="axis">current (120 / 1h / 1800)</text><rect x="168" y="578" width="0.0" height="12" rx="3" fill="#111827" /><text x="173.0" y="587" class="axis">0.0</text><text x="162" y="587" text-anchor="end" class="axis">Kp 80</text><rect x="168" y="594" width="0.0" height="12" rx="3" fill="#111827" /><text x="173.0" y="603" class="axis">0.0</text><text x="162" y="603" text-anchor="end" class="axis">Kp 160</text><rect x="168" y="610" width="0.0" height="12" rx="3" fill="#111827" /><text x="173.0" y="619" class="axis">0.0</text><text x="162" y="619" text-anchor="end" class="axis">Ti 2h</text><rect x="168" y="626" width="0.0" height="12" rx="3" fill="#111827" /><text x="173.0" y="635" class="axis">0.0</text><text x="162" y="635" text-anchor="end" class="axis">Ti 0.5h</text><rect x="168" y="642" width="0.0" height="12" rx="3" fill="#111827" /><text x="173.0" y="651" class="axis">0.0</text><text x="162" y="651" text-anchor="end" class="axis">Kd 900</text><rect x="168" y="658" width="0.0" height="12" rx="3" fill="#111827" /><text x="173.0" y="667" class="axis">0.0</text><text x="162" y="667" text-anchor="end" class="axis">Kd 3600</text><rect x="168" y="674" width="0.0" height="12" rx="3" fill="#111827" /><text x="173.0" y="683" class="axis">0.0</text><text x="162" y="683" text-anchor="end" class="axis">Ti 2h + Kd 3600</text></g>
  <g><text x="456" y="536" class="title">External runs completed</text><text x="456" y="550" class="note">higher is better</text><rect x="456" y="562" width="170.0" height="12" rx="3" fill="#111827" /><text x="631.0" y="571" class="axis">1496</text><rect x="456" y="578" width="170.0" height="12" rx="3" fill="#111827" /><text x="631.0" y="587" class="axis">1496</text><rect x="456" y="594" width="170.0" height="12" rx="3" fill="#111827" /><text x="631.0" y="603" class="axis">1496</text><rect x="456" y="610" width="170.0" height="12" rx="3" fill="#111827" /><text x="631.0" y="619" class="axis">1496</text><rect x="456" y="626" width="170.0" height="12" rx="3" fill="#111827" /><text x="631.0" y="635" class="axis">1496</text><rect x="456" y="642" width="170.0" height="12" rx="3" fill="#111827" /><text x="631.0" y="651" class="axis">1496</text><rect x="456" y="658" width="170.0" height="12" rx="3" fill="#111827" /><text x="631.0" y="667" class="axis">1496</text><rect x="456" y="674" width="170.0" height="12" rx="3" fill="#111827" /><text x="631.0" y="683" class="axis">1496</text></g>
  <g><text x="744" y="536" class="title">External wait, p95 (hours)</text><text x="744" y="550" class="note">lower is better</text><rect x="744" y="562" width="169.6" height="12" rx="3" fill="#111827" /><text x="918.6" y="571" class="axis">78.4</text><rect x="744" y="578" width="169.6" height="12" rx="3" fill="#111827" /><text x="918.6" y="587" class="axis">78.4</text><rect x="744" y="594" width="169.3" height="12" rx="3" fill="#111827" /><text x="918.3" y="603" class="axis">78.3</text><rect x="744" y="610" width="169.1" height="12" rx="3" fill="#111827" /><text x="918.1" y="619" class="axis">78.2</text><rect x="744" y="626" width="170.0" height="12" rx="3" fill="#111827" /><text x="919.0" y="635" class="axis">78.6</text><rect x="744" y="642" width="169.3" height="12" rx="3" fill="#111827" /><text x="918.3" y="651" class="axis">78.3</text><rect x="744" y="658" width="169.3" height="12" rx="3" fill="#111827" /><text x="918.3" y="667" class="axis">78.3</text><rect x="744" y="674" width="169.1" height="12" rx="3" fill="#111827" /><text x="918.1" y="683" class="axis">78.2</text></g>
  <text x="24" y="514" class="rowlabel">36 h burst, then quiet</text>
  <g><text x="168" y="748" class="title">Hours with quota exhausted</text><text x="168" y="762" class="note">lower is better</text><rect x="168" y="774" width="0.0" height="12" rx="3" fill="#111827" /><text x="173.0" y="783" class="axis">0.0</text><text x="162" y="783" text-anchor="end" class="axis">current (120 / 1h / 1800)</text><rect x="168" y="790" width="170.0" height="12" rx="3" fill="#d03b3b" /><text x="343.0" y="799" class="axis">5.2</text><text x="162" y="799" text-anchor="end" class="axis">Kp 80</text><rect x="168" y="806" width="0.0" height="12" rx="3" fill="#111827" /><text x="173.0" y="815" class="axis">0.0</text><text x="162" y="815" text-anchor="end" class="axis">Kp 160</text><rect x="168" y="822" width="72.2" height="12" rx="3" fill="#d03b3b" /><text x="245.2" y="831" class="axis">2.2</text><text x="162" y="831" text-anchor="end" class="axis">Ti 2h</text><rect x="168" y="838" width="0.0" height="12" rx="3" fill="#111827" /><text x="173.0" y="847" class="axis">0.0</text><text x="162" y="847" text-anchor="end" class="axis">Ti 0.5h</text><rect x="168" y="854" width="0.0" height="12" rx="3" fill="#111827" /><text x="173.0" y="863" class="axis">0.0</text><text x="162" y="863" text-anchor="end" class="axis">Kd 900</text><rect x="168" y="870" width="0.0" height="12" rx="3" fill="#111827" /><text x="173.0" y="879" class="axis">0.0</text><text x="162" y="879" text-anchor="end" class="axis">Kd 3600</text><rect x="168" y="886" width="73.6" height="12" rx="3" fill="#d03b3b" /><text x="246.6" y="895" class="axis">2.3</text><text x="162" y="895" text-anchor="end" class="axis">Ti 2h + Kd 3600</text></g>
  <g><text x="456" y="748" class="title">External runs completed</text><text x="456" y="762" class="note">higher is better</text><rect x="456" y="774" width="144.3" height="12" rx="3" fill="#111827" /><text x="605.3" y="783" class="axis">455</text><rect x="456" y="790" width="168.4" height="12" rx="3" fill="#111827" /><text x="629.4" y="799" class="axis">531</text><rect x="456" y="806" width="139.6" height="12" rx="3" fill="#111827" /><text x="600.6" y="815" class="axis">440</text><rect x="456" y="822" width="169.7" height="12" rx="3" fill="#111827" /><text x="630.7" y="831" class="axis">535</text><rect x="456" y="838" width="136.4" height="12" rx="3" fill="#111827" /><text x="597.4" y="847" class="axis">430</text><rect x="456" y="854" width="144.3" height="12" rx="3" fill="#111827" /><text x="605.3" y="863" class="axis">455</text><rect x="456" y="870" width="144.3" height="12" rx="3" fill="#111827" /><text x="605.3" y="879" class="axis">455</text><rect x="456" y="886" width="170.0" height="12" rx="3" fill="#111827" /><text x="631.0" y="895" class="axis">536</text></g>
  <g><text x="744" y="748" class="title">External wait, p95 (hours)</text><text x="744" y="762" class="note">lower is better</text><rect x="744" y="774" width="168.4" height="12" rx="3" fill="#111827" /><text x="917.4" y="783" class="axis">103</text><rect x="744" y="790" width="139.9" height="12" rx="3" fill="#111827" /><text x="888.9" y="799" class="axis">85.8</text><rect x="744" y="806" width="169.2" height="12" rx="3" fill="#111827" /><text x="918.2" y="815" class="axis">104</text><rect x="744" y="822" width="142.9" height="12" rx="3" fill="#111827" /><text x="891.9" y="831" class="axis">87.6</text><rect x="744" y="838" width="170.0" height="12" rx="3" fill="#111827" /><text x="919.0" y="847" class="axis">104</text><rect x="744" y="854" width="168.4" height="12" rx="3" fill="#111827" /><text x="917.4" y="863" class="axis">103</text><rect x="744" y="870" width="168.4" height="12" rx="3" fill="#111827" /><text x="917.4" y="879" class="axis">103</text><rect x="744" y="886" width="143.1" height="12" rx="3" fill="#111827" /><text x="892.1" y="895" class="axis">87.7</text></g>
  <text x="24" y="726" class="rowlabel">Responsive-dominated load</text>
  <text x="24" y="968" class="subtitle">Bars are scaled within each panel, so lengths compare candidates inside one measure and one scenario only, never across panels.</text>
</svg>
